<?xml version="1.0" encoding="utf-8"?>
<!-- Generator: Adobe Illustrator 26.0.1, SVG Export Plug-In . SVG Version: 6.00 Build 0)  -->
<svg version="1.1" id="Layer_1" xmlns="http://www.w3.org/2000/svg" xmlns:xlink="http://www.w3.org/1999/xlink" x="0px" y="0px"
	 viewBox="0 0 1664.93 640" style="enable-background:new 0 0 1664.93 760.99;" xml:space="preserve">
<style type="text/css">
	.st0{opacity:0.1;}
</style>
<path d="M186.96,571.88c0-163.28,0-325.61,0-477.02c4.27,0,8.17,0,12.07,0c57.78-0.02,125.57,0.95,183.32-0.46
	c28.76-0.7,50.26,21.79,67.81,47.06c33.75,48.61,27.04,114.92-14.75,152.6c-8.96,8.08-18.82,14.62-28.18,21.81
	c10.88,6.86,22.74,12.8,33.3,21.27c58.48,46.88,53.1,141.63,14.95,191.64c-21.24,27.85-47.24,43.68-79.12,43.31
	c-55.75-0.64-121.5-0.2-177.25-0.21C195.44,571.88,191.78,571.88,186.96,571.88z M314.65,199.34c-8.28,8.78-15.91,22.65-24.2,30.43
	c-6.6,6.19-8.26,12.24-3.41,21.08c5.41,9.84,6.06,19.93,3.32,32.07c-8.76,38.85-16.64,78.04-23.86,117.39
	c-1.49,8.1-1.16,20.01,2.64,25.72c12.24,18.41,26.54,54.69,39.93,71.93c3.76,4.84,6.62,5.63,10.82,0.13
	c12.59-16.45,25.55-52.46,38.51-68.46c5.57-6.87,7.29-14.38,5.32-24.05c-7.92-38.75-15.06-77.76-23.41-116.36
	c-3.25-15.02-4.42-28.63,3.46-41.73c3.41-5.67,2.91-10.34-1.91-15C332.83,223.74,324.22,209.31,314.65,199.34z"/>
<path d="M529.76,148.39h140.88c2.85,0,5.6,0.46,8.26,1.36c2.66,0.91,4.98,2.19,6.98,3.83c1.99,1.65,3.6,3.51,4.84,5.57
	c1.23,2.06,1.85,4.25,1.85,6.56v51.95c0,2.31-0.62,4.5-1.85,6.56c-1.24,2.06-2.85,3.92-4.84,5.57c-1.99,1.65-4.27,2.93-6.83,3.83
	c-2.56,0.91-5.17,1.36-7.83,1.36c2.46,0.33,4.98,0.87,7.55,1.61c2.56,0.74,4.84,1.73,6.83,2.97s3.65,2.68,4.98,4.33
	c1.33,1.65,1.99,3.46,1.99,5.44v54.91c0,2.31-0.62,4.54-1.85,6.68c-1.24,2.15-2.85,4-4.84,5.57c-1.99,1.57-4.32,2.81-6.98,3.71
	c-2.66,0.91-5.41,1.36-8.26,1.36H529.76V148.39z M636.78,220.62v-34.63h-51.25v34.63H636.78z M636.78,283.95v-34.63h-51.25v34.63
	H636.78z"/>
<path d="M713.45,148.39h55.77v135.55h95.1l21.92,37.6h-172.8V148.39z"/>
<path d="M988.59,148.39h51.18l91.12,173.15H997.1v-37.6h53.25l-35.31-66.29l-54.67,103.89h-62.61L988.59,148.39z"/>
<path d="M1143.5,310.91c-1.14-2.14-1.71-4.37-1.71-6.68V165.71c0-2.31,0.61-4.49,1.85-6.56c1.23-2.06,2.85-3.92,4.84-5.57
	c1.99-1.65,4.32-2.93,6.98-3.83c2.66-0.9,5.41-1.36,8.26-1.36h140.88l-21.92,37.6h-85.1v97.96h107.03l-21.92,37.6h-118.95
	c-2.85,0-5.6-0.45-8.26-1.36c-2.66-0.9-4.98-2.14-6.98-3.71C1146.49,314.91,1144.83,313.06,1143.5,310.91z"/>
<path d="M1325.2,148.39h55.77v59.37l40.43-59.37H1488l-64.92,86.58l64.92,86.58h-66.59l-40.43-59.37v59.37h-55.77V148.39z"/>
<path d="M573,389.99h-44.66v-37.6h163.8v37.6h-53.37v135.55H573V389.99z"/>
<path d="M713.63,352.39h55.77v173.15h-55.77V352.39z"/>
<path d="M790.47,352.39h152.8l-21.92,37.6h-85.1v34.63h85.1v28.69h-85.1v34.63h107.03l-21.92,37.6H790.47V352.39z"/>
</svg>
